<svg width="41" height="41" viewBox="0 0 41 41" fill="none" xmlns="http://www.w3.org/2000/svg">
<path d="M34.875 5.23584H6.125C5.43359 5.23584 4.875 5.79443 4.875 6.48584V35.2358C4.875 35.9272 5.43359 36.4858 6.125 36.4858H34.875C35.5664 36.4858 36.125 35.9272 36.125 35.2358V6.48584C36.125 5.79443 35.5664 5.23584 34.875 5.23584ZM31.2656 14.3569H28.7695C26.8125 14.3569 26.4336 15.2866 26.4336 16.6538V19.6655H31.1055L30.4961 24.3804H26.4336V36.4858H21.5625V24.3843H17.4883V19.6655H21.5625V16.189C21.5625 12.1538 24.0273 9.95459 27.6289 9.95459C29.3555 9.95459 30.8359 10.0835 31.2695 10.1421V14.3569H31.2656Z" fill="#5B6579"/>
</svg>
