<svg width="40" height="41" viewBox="0 0 40 41" fill="none" xmlns="http://www.w3.org/2000/svg">
<path d="M36.7695 12.4272C36.5703 11.6852 36.1797 11.0085 35.6367 10.4649C35.0938 9.92126 34.4176 9.52977 33.6758 9.32959C30.9453 8.59521 20 8.59521 20 8.59521C20 8.59521 9.05469 8.59521 6.32422 9.32568C5.58211 9.52521 4.90556 9.91649 4.36252 10.4602C3.81948 11.0039 3.42906 11.681 3.23047 12.4233C2.5 15.1577 2.5 20.8608 2.5 20.8608C2.5 20.8608 2.5 26.564 3.23047 29.2944C3.63281 30.8022 4.82031 31.9897 6.32422 32.3921C9.05469 33.1265 20 33.1265 20 33.1265C20 33.1265 30.9453 33.1265 33.6758 32.3921C35.1836 31.9897 36.3672 30.8022 36.7695 29.2944C37.5 26.564 37.5 20.8608 37.5 20.8608C37.5 20.8608 37.5 15.1577 36.7695 12.4272ZM16.5234 26.0952V15.6265L25.5859 20.8218L16.5234 26.0952Z" fill="#5B6579"/>
</svg>
