<svg width="23" height="74" viewBox="0 0 23 74" fill="none" xmlns="http://www.w3.org/2000/svg">
<path d="M8 41H14M5.375 52.0834H17.0417M1 61.5834C1 64.5229 2.07552 67.342 3.98995 69.4205C5.90439 71.499 8.50092 72.6667 11.2083 72.6667C13.9158 72.6667 16.5123 71.499 18.4267 69.4205C20.3412 67.342 21.4167 64.5229 21.4167 61.5834C21.4176 59.7989 21.0201 58.0407 20.2581 56.4595C19.4962 54.8783 18.3925 53.5212 17.0417 52.5046L16.2513 48.4417C16.1466 47.6929 15.7982 47.0095 15.2692 46.5157C14.7403 46.0218 14.0658 45.7502 13.3681 45.7501H9.04854C8.3509 45.7502 7.67642 46.0218 7.14745 46.5157C6.61848 47.0095 6.27006 47.6929 6.16542 48.4417L5.375 52.4872C4.02372 53.5074 2.92 54.8677 2.15814 56.4517C1.39628 58.0357 0.998916 59.7964 1 61.5834Z" stroke="#FFD56A" stroke-width="2" stroke-linecap="round" stroke-linejoin="round"/>
<path d="M11 40V0" stroke="black" stroke-width="2"/>
</svg>
