<svg width="41" height="34" viewBox="0 0 41 34" fill="none" xmlns="http://www.w3.org/2000/svg">
<path d="M0 12.734V25.468H9.65094H19.3019V28.7383V32.0086H12.3962H5.49057V32.9347V33.8608H20.2075H34.9245V32.9347V32.0086H28.0189H21.1132V28.7383V25.468L30.9509 25.4564L40.783 25.439L40.8 12.7166L40.8113 3.8147e-06H20.4057H0V12.734ZM38.9887 12.7166L38.9717 23.5868L20.4113 23.6042C5.59811 23.6158 1.83962 23.6042 1.8 23.5463C1.77736 23.5058 1.75472 18.609 1.75472 12.6587V1.85222H20.3774H39L38.9887 12.7166Z" fill="white"/>
<path d="M9.12453 5.63186L8.49057 6.28014L11.3774 9.23211L14.2642 12.1841L11.3774 15.136C9.79246 16.7625 8.49057 18.117 8.49057 18.1459C8.49057 18.1806 8.76227 18.4874 9.10189 18.8289L9.70755 19.4482L13.2623 15.8133L16.8113 12.1841L13.2849 8.57804L9.76415 4.9778L9.12453 5.63186Z" fill="white"/>
<path d="M16.3019 17.7986V18.6958H22.4434H28.5849V17.7986V16.9015H22.4434H16.3019V17.7986Z" fill="#9AD3FF"/>
</svg>
