<svg width="42" height="34" viewBox="0 0 42 34" fill="none" xmlns="http://www.w3.org/2000/svg">
<path d="M0.811325 12.8036V25.5376H10.4623H20.1132V28.8079V32.0782H13.2076H6.30189V33.0043V33.9304H21.0189H35.7359V33.0043V32.0782H28.8302H21.9245V28.8079V25.5376L31.7623 25.526L41.5943 25.5086L41.6113 12.7862L41.6226 0.0695839H21.217H0.811325V12.8036ZM39.8 12.7862L39.783 23.6564L21.2226 23.6738C6.40944 23.6853 2.65095 23.6738 2.61133 23.6159C2.58868 23.5754 2.56604 18.6786 2.56604 12.7283V1.9218H21.1887H39.8113L39.8 12.7862Z" fill="#1A1A1A"/>
<path d="M9.93586 5.70144L9.3019 6.34972L12.1887 9.30169L15.0755 12.2537L12.1887 15.2056C10.6038 16.8321 9.3019 18.1865 9.3019 18.2155C9.3019 18.2502 9.57359 18.557 9.91322 18.8985L10.5189 19.5178L14.0736 15.8828L17.6226 12.2537L14.0962 8.64762L10.5755 5.04738L9.93586 5.70144Z" fill="#020202"/>
<path d="M17.1132 17.8682V18.7654H23.2547H29.3962V17.8682V16.971H23.2547H17.1132V17.8682Z" fill="#0F6FBB"/>
</svg>
