<svg width="40" height="41" viewBox="0 0 40 41" fill="none" xmlns="http://www.w3.org/2000/svg">
<path d="M20 15.6537C17.1328 15.6537 14.793 17.9936 14.793 20.8608C14.793 23.728 17.1328 26.0678 20 26.0678C22.8672 26.0678 25.207 23.728 25.207 20.8608C25.207 17.9936 22.8672 15.6537 20 15.6537ZM35.6172 20.8608C35.6172 18.7045 35.6367 16.5678 35.5156 14.4155C35.3945 11.9155 34.8242 9.69672 32.9961 7.86859C31.1641 6.03656 28.9492 5.47016 26.4492 5.34906C24.293 5.22797 22.1562 5.2475 20.0039 5.2475C17.8477 5.2475 15.7109 5.22797 13.5586 5.34906C11.0586 5.47016 8.83984 6.04047 7.01172 7.86859C5.17969 9.70062 4.61328 11.9155 4.49219 14.4155C4.37109 16.5717 4.39063 18.7084 4.39063 20.8608C4.39063 23.0131 4.37109 25.1537 4.49219 27.3061C4.61328 29.8061 5.18359 32.0248 7.01172 33.853C8.84375 35.685 11.0586 36.2514 13.5586 36.3725C15.7148 36.4936 17.8516 36.4741 20.0039 36.4741C22.1602 36.4741 24.2969 36.4936 26.4492 36.3725C28.9492 36.2514 31.168 35.6811 32.9961 33.853C34.8281 32.0209 35.3945 29.8061 35.5156 27.3061C35.6406 25.1537 35.6172 23.017 35.6172 20.8608ZM20 28.8725C15.5664 28.8725 11.9883 25.2944 11.9883 20.8608C11.9883 16.4272 15.5664 12.8491 20 12.8491C24.4336 12.8491 28.0117 16.4272 28.0117 20.8608C28.0117 25.2944 24.4336 28.8725 20 28.8725ZM28.3398 14.392C27.3047 14.392 26.4688 13.5561 26.4688 12.5209C26.4688 11.4858 27.3047 10.6498 28.3398 10.6498C29.375 10.6498 30.2109 11.4858 30.2109 12.5209C30.2113 12.7667 30.1631 13.0102 30.0691 13.2373C29.9752 13.4645 29.8374 13.6709 29.6636 13.8447C29.4898 14.0185 29.2834 14.1563 29.0562 14.2502C28.8291 14.3442 28.5856 14.3923 28.3398 14.392Z" fill="#D0D0D0"/>
</svg>
