<svg width="199" height="176" viewBox="0 0 199 176" fill="none" xmlns="http://www.w3.org/2000/svg">
<g clip-path="url(#clip0_226_270)">
<path fill-rule="evenodd" clip-rule="evenodd" d="M80.9498 83.8437L79.3748 87.7296L103.061 97.33L126.746 106.93L128.321 103.044L129.896 99.1586L106.211 89.5582L82.5249 79.9578L80.9498 83.8437Z" fill="#D8EFFF"/>
<path fill-rule="evenodd" clip-rule="evenodd" d="M28.6658 42.7449L11.3403 85.4897L46.8689 99.8903L82.3975 114.291L77.9874 125.171L73.5772 136.052L48.1997 125.766C23.9506 115.937 22.766 115.618 21.562 118.588C20.3278 121.633 21.4305 122.154 75.2868 143.984L130.272 166.27L131.691 162.774C133.11 159.282 133.074 159.263 107.542 149.457L81.9734 139.636L86.4151 128.678L90.8567 117.72L127.231 132.463L163.606 147.206L180.931 104.462L198.257 61.7167L122.124 30.8584L45.9913 0L28.6658 42.7449ZM170.827 101.273L156.819 137.221L89.5696 109.961L22.3196 82.701L36.81 46.9507L51.3004 11.2005L118.067 38.2626L184.834 65.3247L170.827 101.273ZM71.4427 32.838C67.7568 33.6749 67.9154 34.664 73.787 47.5674L80.0838 61.3996L70.4532 66.0127C65.1565 68.5493 59.2965 71.0423 57.4322 71.5498C53.0378 72.7493 51.6484 76.3086 54.566 78.8883C56.139 80.2806 62.2852 78.9135 74.049 74.5588C83.5004 71.0585 91.5164 67.494 91.8629 66.6391C92.5125 65.0366 77.9299 32.8071 76.3037 32.2511C75.8041 32.0794 73.6168 32.3438 71.4427 32.838Z" fill="#EFEFEF"/>
</g>
<defs>
<clipPath id="clip0_226_270">
<rect width="165.021" height="122.435" fill="white" transform="translate(45.9913) rotate(22.0639)"/>
</clipPath>
</defs>
</svg>
