<svg width="40" height="40" viewBox="0 0 40 40" fill="none" xmlns="http://www.w3.org/2000/svg">
<path opacity="0.2" d="M33.8594 23.8438C31.4052 24.5319 28.8121 24.5545 26.3463 23.9091C23.8806 23.2637 21.631 21.9736 19.8287 20.1713C18.0264 18.369 16.7363 16.1195 16.0909 13.6537C15.4455 11.1879 15.4681 8.5948 16.1563 6.14062C13.7367 6.81408 11.5358 8.10972 9.77273 9.89849C8.00971 11.6873 6.74611 13.9067 6.1078 16.3358C5.46949 18.7649 5.47875 21.3189 6.13465 23.7433C6.79055 26.1677 8.0702 28.3779 9.84614 30.1539C11.6221 31.9298 13.8323 33.2095 16.2567 33.8654C18.6811 34.5213 21.2351 34.5305 23.6642 33.8922C26.0933 33.2539 28.3127 31.9903 30.1015 30.2273C31.8903 28.4643 33.1859 26.2633 33.8594 23.8438V23.8438Z" fill="white"/>
<path d="M38.75 13.75C38.75 14.0815 38.6183 14.3995 38.3839 14.6339C38.1495 14.8683 37.8315 15 37.5 15H35V17.5C35 17.8315 34.8683 18.1495 34.6339 18.3839C34.3995 18.6183 34.0815 18.75 33.75 18.75C33.4185 18.75 33.1005 18.6183 32.8661 18.3839C32.6317 18.1495 32.5 17.8315 32.5 17.5V15H30C29.6685 15 29.3505 14.8683 29.1161 14.6339C28.8817 14.3995 28.75 14.0815 28.75 13.75C28.75 13.4185 28.8817 13.1005 29.1161 12.8661C29.3505 12.6317 29.6685 12.5 30 12.5H32.5V10C32.5 9.66848 32.6317 9.35054 32.8661 9.11612C33.1005 8.8817 33.4185 8.75 33.75 8.75C34.0815 8.75 34.3995 8.8817 34.6339 9.11612C34.8683 9.35054 35 9.66848 35 10V12.5H37.5C37.8315 12.5 38.1495 12.6317 38.3839 12.8661C38.6183 13.1005 38.75 13.4185 38.75 13.75ZM23.75 7.5H25V8.75C25 9.08152 25.1317 9.39946 25.3661 9.63388C25.6005 9.8683 25.9185 10 26.25 10C26.5815 10 26.8995 9.8683 27.1339 9.63388C27.3683 9.39946 27.5 9.08152 27.5 8.75V7.5H28.75C29.0815 7.5 29.3995 7.3683 29.6339 7.13388C29.8683 6.89946 30 6.58152 30 6.25C30 5.91848 29.8683 5.60054 29.6339 5.36612C29.3995 5.1317 29.0815 5 28.75 5H27.5V3.75C27.5 3.41848 27.3683 3.10054 27.1339 2.86612C26.8995 2.6317 26.5815 2.5 26.25 2.5C25.9185 2.5 25.6005 2.6317 25.3661 2.86612C25.1317 3.10054 25 3.41848 25 3.75V5H23.75C23.4185 5 23.1005 5.1317 22.8661 5.36612C22.6317 5.60054 22.5 5.91848 22.5 6.25C22.5 6.58152 22.6317 6.89946 22.8661 7.13388C23.1005 7.3683 23.4185 7.5 23.75 7.5ZM35.0469 23.4531C35.1247 23.6971 35.1247 23.9592 35.0469 24.2031C34.3133 26.8317 32.904 29.2224 30.9594 31.137C29.0147 33.0517 26.6025 34.4237 23.9628 35.1164C21.3232 35.809 18.5481 35.7983 15.9139 35.0851C13.2796 34.372 10.8781 32.9813 8.94842 31.0516C7.01869 29.1219 5.62804 26.7204 4.91489 24.0861C4.20174 21.4519 4.19097 18.6769 4.88364 16.0372C5.57631 13.3975 6.94828 10.9853 8.86296 9.04062C10.7776 7.09597 13.1683 5.68671 15.7969 4.95313C16.0633 4.87023 16.3501 4.88126 16.6094 4.98437C16.8526 5.08221 17.0589 5.25404 17.1991 5.47556C17.3393 5.69708 17.4063 5.95706 17.3906 6.21875C17.3902 6.31441 17.3744 6.40938 17.3438 6.5C16.7239 8.73742 16.7086 11.0992 17.2994 13.3445C17.8903 15.5898 19.0661 17.6381 20.707 19.2806C22.3479 20.9231 24.3951 22.1009 26.6398 22.694C28.8845 23.287 31.2464 23.274 33.4844 22.6562L33.8281 22.5938C34.0956 22.5919 34.3569 22.6737 34.5754 22.8279C34.794 22.982 34.9588 23.2006 35.0469 23.4531V23.4531ZM31.9219 25.5C29.5637 25.7942 27.1695 25.5461 24.9218 24.7746C22.6741 24.0031 20.6322 22.7286 18.9518 21.0482C17.2714 19.3678 15.9969 17.3259 15.2254 15.0782C14.4539 12.8305 14.2058 10.4363 14.5 8.07813C12.5817 8.96524 10.906 10.3025 9.61533 11.9762C8.32471 13.6499 7.45736 15.6105 7.08705 17.6913C6.71673 19.7721 6.85439 21.9116 7.48834 23.9278C8.12228 25.944 9.23375 27.7773 10.7282 29.2718C12.2227 30.7663 14.056 31.8777 16.0722 32.5117C18.0884 33.1456 20.2279 33.2833 22.3087 32.913C24.3895 32.5426 26.3501 31.6753 28.0238 30.3847C29.6975 29.094 31.0348 27.4183 31.9219 25.5V25.5Z" fill="white"/>
</svg>
