<svg width="40" height="40" viewBox="0 0 40 40" fill="none" xmlns="http://www.w3.org/2000/svg">
<g clip-path="url(#clip0_300_4)">
<path d="M16.37 3.73C15.087 6.5151 14.6884 9.62652 15.2279 12.6451C15.7674 15.6637 17.219 18.4444 19.3873 20.6127C21.5556 22.781 24.3363 24.2327 27.3549 24.7721C30.3735 25.3116 33.4849 24.913 36.27 23.63C34.6133 31.09 27.9583 36.6667 20 36.6667C10.795 36.6667 3.33334 29.205 3.33334 20C3.33334 12.0417 8.91 5.38667 16.37 3.73V3.73ZM30.2733 3.81833L31.6667 4.16667V5.83333L30.2733 6.18167C29.6873 6.32822 29.1522 6.63126 28.7251 7.05838C28.2979 7.48551 27.9949 8.02067 27.8483 8.60667L27.5 10H25.8333L25.485 8.60667C25.3384 8.02067 25.0354 7.48551 24.6083 7.05838C24.1812 6.63126 23.646 6.32822 23.06 6.18167L21.6667 5.83333V4.16667L23.06 3.81833C23.6457 3.67151 24.1805 3.36836 24.6073 2.94125C25.0341 2.51415 25.3369 1.97913 25.4833 1.39333L25.8333 0H27.5L27.8483 1.39333C27.9949 1.97933 28.2979 2.51449 28.7251 2.94162C29.1522 3.36874 29.6873 3.67178 30.2733 3.81833V3.81833ZM38.6067 12.1517L40 12.5V14.1667L38.6067 14.515C38.0207 14.6616 37.4855 14.9646 37.0584 15.3917C36.6313 15.8188 36.3282 16.354 36.1817 16.94L35.8333 18.3333H34.1667L33.8183 16.94C33.6718 16.354 33.3687 15.8188 32.9416 15.3917C32.5145 14.9646 31.9793 14.6616 31.3933 14.515L30 14.1667V12.5L31.3933 12.1517C31.9793 12.0051 32.5145 11.7021 32.9416 11.275C33.3687 10.8478 33.6718 10.3127 33.8183 9.72667L34.1667 8.33333H35.8333L36.1817 9.72667C36.3282 10.3127 36.6313 10.8478 37.0584 11.275C37.4855 11.7021 38.0207 12.0051 38.6067 12.1517Z" fill="white"/>
</g>
<defs>
<clipPath id="clip0_300_4">
<rect width="40" height="40" fill="white"/>
</clipPath>
</defs>
</svg>
