<svg width="40" height="41" viewBox="0 0 40 41" fill="none" xmlns="http://www.w3.org/2000/svg">
<g clip-path="url(#clip0_226_349)">
<path d="M33.8617 8.3475C31.3117 7.1975 28.5783 6.3475 25.72 5.86417C25.6945 5.85928 25.6682 5.86243 25.6446 5.87318C25.621 5.88393 25.6014 5.90175 25.5883 5.92417C25.2383 6.53917 24.8483 7.34084 24.575 7.97417C21.5435 7.52123 18.4615 7.52123 15.43 7.97417C15.1256 7.27227 14.7823 6.58788 14.4017 5.92417C14.3888 5.90147 14.3693 5.88325 14.3457 5.87194C14.3222 5.86062 14.2958 5.85675 14.27 5.86084C11.4133 6.34417 8.68001 7.19417 6.12834 8.34584C6.10639 8.35504 6.08778 8.37075 6.07501 8.39084C0.888341 16.0158 -0.533326 23.4525 0.165008 30.7958C0.166951 30.8138 0.172533 30.8312 0.181416 30.847C0.190298 30.8627 0.202294 30.8765 0.216674 30.8875C3.24399 33.0915 6.62057 34.7705 10.205 35.8542C10.23 35.8619 10.2567 35.8618 10.2817 35.8541C10.3067 35.8464 10.3287 35.8313 10.345 35.8108C11.1163 34.7793 11.7998 33.6849 12.3883 32.5392C12.3965 32.5235 12.4012 32.5063 12.4021 32.4886C12.4031 32.471 12.4002 32.4533 12.3937 32.4369C12.3872 32.4205 12.3773 32.4056 12.3646 32.3934C12.3519 32.3811 12.3367 32.3717 12.32 32.3658C11.2433 31.9604 10.2001 31.4711 9.20001 30.9025C9.18204 30.8922 9.16689 30.8777 9.15594 30.8601C9.14498 30.8426 9.13855 30.8226 9.13723 30.8019C9.13591 30.7813 9.13973 30.7606 9.14836 30.7418C9.15699 30.723 9.17016 30.7066 9.18667 30.6942C9.39667 30.5392 9.60667 30.3775 9.80667 30.2158C9.82468 30.2013 9.84636 30.192 9.86931 30.1891C9.89227 30.1862 9.91559 30.1896 9.93667 30.1992C16.4817 33.1392 23.57 33.1392 30.0383 30.1992C30.0595 30.1891 30.083 30.1851 30.1063 30.1878C30.1296 30.1904 30.1517 30.1996 30.17 30.2142C30.37 30.3775 30.5783 30.5392 30.79 30.6942C30.8067 30.7064 30.8201 30.7225 30.829 30.7412C30.8379 30.7598 30.842 30.7804 30.841 30.801C30.84 30.8217 30.8339 30.8417 30.8233 30.8594C30.8126 30.8772 30.7978 30.8919 30.78 30.9025C29.7833 31.4758 28.7467 31.9608 27.6583 32.3642C27.6416 32.3702 27.6264 32.3798 27.6137 32.3922C27.601 32.4046 27.591 32.4196 27.5846 32.4362C27.5781 32.4528 27.5752 32.4705 27.5762 32.4883C27.5771 32.506 27.5818 32.5234 27.59 32.5392C28.19 33.6842 28.8767 34.7742 29.6317 35.8092C29.6474 35.8304 29.6692 35.8463 29.6943 35.8546C29.7193 35.863 29.7464 35.8634 29.7717 35.8558C33.3623 34.7752 36.7443 33.0955 39.775 30.8875C39.7898 30.8772 39.8022 30.8638 39.8114 30.8483C39.8206 30.8327 39.8264 30.8154 39.8283 30.7975C40.6617 22.3075 38.4317 14.9308 33.9133 8.39417C33.9023 8.37293 33.8839 8.35637 33.8617 8.3475ZM13.3667 26.3242C11.3967 26.3242 9.77167 24.5425 9.77167 22.3575C9.77167 20.1708 11.365 18.3908 13.3667 18.3908C15.3833 18.3908 16.9933 20.1858 16.9617 22.3575C16.9617 24.5442 15.3683 26.3242 13.3667 26.3242ZM26.6583 26.3242C24.6867 26.3242 23.0633 24.5425 23.0633 22.3575C23.0633 20.1708 24.655 18.3908 26.6583 18.3908C28.675 18.3908 30.285 20.1858 30.2533 22.3575C30.2533 24.5442 28.6767 26.3242 26.6583 26.3242Z" fill="#5B6579"/>
</g>
<defs>
<clipPath id="clip0_226_349">
<rect width="40" height="40" fill="white" transform="translate(0 0.86084)"/>
</clipPath>
</defs>
</svg>
