<svg width="41" height="41" viewBox="0 0 41 41" fill="none" xmlns="http://www.w3.org/2000/svg">
<path d="M20.4844 3.84131C10.8242 3.8374 3 11.6577 3 21.3101C3 28.9429 7.89453 35.4312 14.7109 37.814C15.6289 38.0444 15.4883 37.3921 15.4883 36.9468V33.9194C10.1875 34.5405 9.97266 31.0327 9.61719 30.4468C8.89844 29.2202 7.19922 28.9077 7.70703 28.3218C8.91406 27.7007 10.1445 28.478 11.5703 30.5835C12.6016 32.1108 14.6133 31.853 15.6328 31.5991C15.8555 30.6812 16.332 29.8608 16.9883 29.2241C11.4961 28.2397 9.20703 24.8882 9.20703 20.9038C9.20703 18.9702 9.84375 17.1929 11.0938 15.7593C10.2969 13.396 11.168 11.3726 11.2852 11.0718C13.5547 10.8687 15.9141 12.6968 16.0977 12.8413C17.3867 12.4937 18.8594 12.3101 20.5078 12.3101C22.1641 12.3101 23.6406 12.5015 24.9414 12.853C25.3828 12.5171 27.5703 10.9468 29.6797 11.1382C29.793 11.439 30.6445 13.4155 29.8945 15.7476C31.1602 17.1851 31.8047 18.978 31.8047 20.9155C31.8047 24.9077 29.5 28.2632 23.9922 29.2319C24.4639 29.6959 24.8385 30.2492 25.0941 30.8595C25.3496 31.4698 25.481 32.125 25.4805 32.7866V37.1812C25.5117 37.5327 25.4805 37.8804 26.0664 37.8804C32.9844 35.5483 37.9648 29.0132 37.9648 21.314C37.9648 11.6577 30.1367 3.84131 20.4844 3.84131Z" fill="#5B6579"/>
</svg>
