<svg width="185" height="203" viewBox="0 0 185 203" fill="none" xmlns="http://www.w3.org/2000/svg">
<g clip-path="url(#clip0_281_122)">
<path d="M148.709 185.657L31.7213 194.747L40.7292 158.625L134.23 151.361L148.709 185.657Z" fill="#6F94AD" fill-opacity="0.3"/>
<path d="M70.7806 85.0943C78.0923 84.5262 83.5591 78.1384 82.991 70.8267C82.4229 63.515 76.0351 58.0482 68.7234 58.6162C61.4117 59.1843 55.9449 65.5722 56.513 72.8839C57.081 80.1956 63.4689 85.6624 70.7806 85.0943Z" fill="#6F94AD" fill-opacity="0.3"/>
<path d="M71.1926 90.3785C60.9777 91.1722 52.0222 83.5075 51.2285 73.293C50.4349 63.0784 58.0999 54.1225 68.3141 53.3289C78.5283 52.5353 87.4846 60.2003 88.2781 70.4145C89.0717 80.6286 81.4075 89.5849 71.1926 90.3785ZM69.1353 63.899C64.7486 64.2398 61.4575 68.0855 61.7983 72.4722C62.1391 76.8588 65.9847 80.15 70.3714 79.8092C74.7581 79.4684 78.0493 75.6227 77.7085 71.236C77.3676 66.8493 73.5216 63.5582 69.1353 63.899Z" fill="#6F94AD" fill-opacity="0.3"/>
<path d="M153.458 183.278L139.113 149.299C138.225 147.198 136.093 145.899 133.819 146.076L92.354 149.298L89.3078 110.09C89.081 107.171 86.5313 104.989 83.6122 105.216C59.5702 107.084 38.4916 89.0443 36.6237 65.0024C34.7558 40.9604 52.7955 19.8818 76.8371 18.0139C100.879 16.146 121.958 34.1854 123.826 58.2273C124.756 70.204 120.866 81.7409 112.872 90.7128C110.924 92.8985 111.117 96.2496 113.303 98.197C115.489 100.144 118.84 99.9508 120.787 97.7659C130.719 86.6201 135.551 72.2865 134.395 57.4069C132.075 27.5367 105.886 5.12384 76.0156 7.44457C46.1454 9.76531 23.7326 35.9542 26.0533 65.8244C28.2355 93.9115 51.5221 115.402 79.128 115.939L81.7836 150.119L40.3186 153.34C38.0441 153.517 36.1376 155.129 35.5861 157.343L26.5777 193.464C26.1657 195.118 26.5732 196.868 27.6738 198.169C28.774 199.47 30.4329 200.164 32.1319 200.032L149.119 190.943C149.122 190.942 149.125 190.942 149.129 190.942C152.049 190.715 154.231 188.165 154.004 185.246C153.949 184.538 153.758 183.875 153.458 183.278ZM38.6447 188.892L44.9484 163.614L82.6048 160.689L83.4388 171.423C83.6656 174.342 86.2153 176.524 89.1344 176.297C92.0531 176.07 94.2356 173.521 94.0088 170.602L93.1748 159.867L130.831 156.942L140.964 180.942L38.6447 188.892Z" fill="#6F94AD" fill-opacity="0.3"/>
</g>
<defs>
<clipPath id="clip0_281_122">
<rect width="188.609" height="188.609" fill="white" transform="translate(-18 14.749) rotate(-4.44261)"/>
</clipPath>
</defs>
</svg>
