<svg width="185" height="203" viewBox="0 0 185 203" fill="none" xmlns="http://www.w3.org/2000/svg">
<g clip-path="url(#clip0_226_319)">
<path d="M148.709 185.518L31.7213 194.608L40.7292 158.486L134.23 151.222L148.709 185.518Z" fill="#D8EFFF" fill-opacity="0.99"/>
<path d="M70.7806 84.9551C78.0923 84.3871 83.5591 77.9992 82.991 70.6875C82.4229 63.3758 76.0351 57.909 68.7234 58.4771C61.4117 59.0452 55.9449 65.433 56.513 72.7447C57.081 80.0564 63.4689 85.5232 70.7806 84.9551Z" fill="#D8EFFF" fill-opacity="0.99"/>
<path d="M71.1926 90.2393C60.9777 91.033 52.0222 83.3683 51.2285 73.1538C50.4349 62.9392 58.0999 53.9833 68.3141 53.1897C78.5283 52.3962 87.4846 60.0611 88.2781 70.2753C89.0717 80.4894 81.4075 89.4457 71.1926 90.2393ZM69.1353 63.7598C64.7486 64.1006 61.4575 67.9463 61.7983 72.333C62.1391 76.7196 65.9847 80.0108 70.3714 79.67C74.7581 79.3292 78.0493 75.4835 77.7085 71.0968C77.3676 66.7101 73.5216 63.419 69.1353 63.7598Z" fill="#E4E4E4" fill-opacity="0.5"/>
<path d="M153.458 183.139L139.113 149.16C138.225 147.058 136.093 145.76 133.819 145.937L92.354 149.158L89.3078 109.951C89.081 107.032 86.5313 104.85 83.6122 105.077C59.5702 106.945 38.4916 88.9052 36.6237 64.8632C34.7558 40.8213 52.7955 19.7426 76.8371 17.8747C100.879 16.0068 121.958 34.0462 123.826 58.0882C124.756 70.0649 120.866 81.6018 112.872 90.5737C110.924 92.7594 111.117 96.1105 113.303 98.0578C115.489 100.005 118.84 99.8117 120.787 97.6267C130.719 86.481 135.551 72.1474 134.395 57.2677C132.075 27.3975 105.886 4.98468 76.0156 7.30541C46.1454 9.62615 23.7326 35.8151 26.0533 65.6852C28.2355 93.7723 51.5221 115.263 79.128 115.8L81.7836 149.98L40.3186 153.201C38.0441 153.378 36.1376 154.99 35.5861 157.204L26.5777 193.325C26.1657 194.979 26.5732 196.729 27.6738 198.03C28.774 199.331 30.4329 200.025 32.1319 199.893L149.119 190.803C149.122 190.803 149.125 190.803 149.129 190.803C152.049 190.576 154.231 188.026 154.004 185.107C153.949 184.399 153.758 183.736 153.458 183.139ZM38.6447 188.753L44.9484 163.475L82.6048 160.549L83.4388 171.284C83.6656 174.203 86.2153 176.385 89.1344 176.158C92.0531 175.931 94.2356 173.381 94.0088 170.462L93.1748 159.728L130.831 156.802L140.964 180.803L38.6447 188.753Z" fill="#E4E4E4" fill-opacity="0.5"/>
</g>
<defs>
<clipPath id="clip0_226_319">
<rect width="188.609" height="188.609" fill="white" transform="translate(-18 14.6099) rotate(-4.44261)"/>
</clipPath>
</defs>
</svg>
