<svg width="159" height="159" viewBox="0 0 159 159" fill="none" xmlns="http://www.w3.org/2000/svg">
<g clip-path="url(#clip0_326_12)">
<path d="M46.0868 77.272V74.6977C46.0868 71.4528 48.7182 68.8214 51.963 68.8214C55.1609 68.8214 57.757 71.3776 57.8322 74.5572C45.9193 77.272 46.0868 77.272 46.0868 77.272Z" fill="#5A7689"/>
<path d="M38.9378 140.978H46.0868V105.406C48.442 106.116 51.007 106.247 53.5772 105.662L57.8393 104.691V140.978H64.9889C68.2344 140.978 70.8652 143.609 70.8652 146.854C70.8652 150.099 68.2344 152.731 64.9889 152.731H38.9378C35.6923 152.731 33.0615 150.099 33.0615 146.854C33.0615 143.608 35.6923 140.978 38.9378 140.978Z" fill="#5A7689"/>
<path d="M72.1726 101.423C76.3136 100.48 80.3741 99.5541 84.4869 98.6169C89.5822 97.4557 92.2406 94.0076 92.6619 90.0258L95.6353 61.4684L85.7937 87.4215C84.9223 89.7208 82.9561 91.432 80.558 91.9785L51.9454 98.4994C47.9872 99.4008 44.053 96.9228 43.1516 92.9698C42.2502 89.0151 44.7259 85.0774 48.6812 84.176L73.4542 78.5307L81.8996 56.2603L73.0405 68.6386L70.5308 62.0661C68.373 56.4155 71.2048 50.0856 76.856 47.9278L95.1017 40.9609C100.752 38.8032 107.082 41.6349 109.24 47.2855C109.24 47.2855 122.626 82.6764 128.052 96.5532C128.694 98.1979 129.153 100.081 128.885 101.828C127.608 110.146 123.777 135.101 123.777 135.101H150.186C155.054 135.101 159 139.047 159 143.915C159 148.783 155.054 152.729 150.186 152.729H113.506C108.11 152.729 103.974 147.915 104.793 142.578L109.834 109.742L87.237 115.434L93.4987 141.882C94.6199 146.619 91.6894 151.369 86.952 152.491C82.2245 153.611 77.4671 150.689 76.3436 145.944L68.0798 111.04C67.1696 107.194 68.9325 103.338 72.1726 101.423Z" fill="#6F94AD" fill-opacity="0.3"/>
<path d="M75.4821 38.6945C66.5282 38.6945 59.2696 31.4359 59.2696 22.482C59.2696 13.528 66.5282 6.26941 75.4821 6.26941C84.4361 6.26941 91.6947 13.528 91.6947 22.482C91.6947 31.4359 84.4361 38.6945 75.4821 38.6945Z" fill="#6F94AD" fill-opacity="0.3"/>
<path d="M24.6268 109.28C24.8183 109.147 25.0692 109.138 25.2702 109.255C25.4712 109.373 25.5858 109.597 25.5634 109.829C25.48 110.704 25.5317 111.89 26.3426 112.995C27.314 114.553 30.3784 116.966 33.1661 119.832C35.3004 122.054 37.4746 124.717 38.4483 127.69C39.7457 131.826 38.2361 134.249 36.5732 135.353C36.1653 135.624 35.6236 135.305 35.6588 134.817C35.811 132.722 35.3268 131.875 33.7584 130.179C31.6483 128.008 28.5668 125.55 26.0453 122.425C24.1155 120.071 22.1828 116.737 22.3391 113.711C22.3462 112.139 23.0601 110.365 24.6268 109.28V109.28Z" fill="#3E84B4" fill-opacity="0.4"/>
<path d="M0.00880378 102.704C0.0164429 101.133 0.730414 99.3591 2.29702 98.2744C2.48859 98.1416 2.7395 98.1322 2.94047 98.2497C3.14144 98.3672 3.25602 98.5911 3.23369 98.8232C3.15025 99.6982 3.20195 100.884 4.01287 101.99C4.98422 103.548 8.04869 105.96 10.8364 108.827C12.9706 111.049 15.1448 113.712 16.1185 116.685C17.416 120.821 15.9064 123.244 14.2434 124.348C13.8356 124.619 13.2938 124.3 13.3291 123.812C13.4813 121.717 12.9971 120.87 11.4287 119.174C9.31854 117.003 6.23704 114.545 3.71555 111.42C1.78579 109.065 -0.146917 105.731 0.00880378 102.704V102.704Z" fill="#3E84B4" fill-opacity="0.4"/>
<path d="M15.6144 100.877C15.2065 101.148 14.6648 100.829 14.7 100.341C14.8522 98.2462 14.368 97.3988 12.7996 95.7035C10.6895 93.5322 7.60798 91.0736 5.08649 87.9492C3.15673 85.5952 1.22403 82.261 1.38033 79.2347C1.38797 77.6634 2.10193 75.8894 3.66853 74.8046C3.8601 74.6718 4.11102 74.6624 4.31198 74.78C4.51295 74.8975 4.62755 75.1214 4.60522 75.3535C4.52178 76.2285 4.57348 77.4143 5.38441 78.5196C6.35575 80.078 9.42021 82.4902 12.2079 85.3566C14.3422 87.5784 16.5164 90.2415 17.4901 93.2149C18.7869 97.35 17.2773 99.7728 15.6144 100.877Z" fill="#3E84B4" fill-opacity="0.4"/>
</g>
<defs>
<clipPath id="clip0_326_12">
<rect width="159" height="159" fill="white" transform="matrix(-1 0 0 1 159 0)"/>
</clipPath>
</defs>
</svg>
