<svg width="199" height="176" viewBox="0 0 199 176" fill="none" xmlns="http://www.w3.org/2000/svg">
<g clip-path="url(#clip0_281_73)">
<path fill-rule="evenodd" clip-rule="evenodd" d="M80.9498 83.9828L79.3748 87.8687L103.061 97.4691L126.746 107.07L128.321 103.184L129.896 99.2977L106.211 89.6973L82.5249 80.0969L80.9498 83.9828Z" fill="#6F94AD"/>
<path fill-rule="evenodd" clip-rule="evenodd" d="M28.6658 42.884L11.3403 85.6289L46.8689 100.029L82.3975 114.43L77.9874 125.311L73.5772 136.191L48.1997 125.905C23.9506 116.076 22.766 115.757 21.562 118.727C20.3278 121.772 21.4305 122.294 75.2868 144.123L130.272 166.409L131.691 162.913C133.11 159.422 133.074 159.402 107.542 149.596L81.9734 139.775L86.4151 128.817L90.8567 117.859L127.231 132.602L163.606 147.346L180.931 104.601L198.257 61.8559L122.124 30.9976L45.9913 0.13916L28.6658 42.884ZM170.827 101.412L156.819 137.36L89.5696 110.1L22.3196 82.8401L36.81 47.0899L51.3004 11.3397L118.067 38.4018L184.834 65.4639L170.827 101.412ZM71.4427 32.9772C67.7568 33.8141 67.9154 34.8031 73.787 47.7066L80.0838 61.5388L70.4532 66.1518C65.1565 68.6885 59.2965 71.1814 57.4322 71.689C53.0378 72.8885 51.6484 76.4478 54.566 79.0275C56.139 80.4197 62.2852 79.0526 74.049 74.6979C83.5004 71.1977 91.5164 67.6332 91.8629 66.7783C92.5125 65.1757 77.9299 32.9463 76.3037 32.3903C75.8041 32.2186 73.6168 32.483 71.4427 32.9772Z" fill="#5A7689" fill-opacity="0.4"/>
</g>
<defs>
<clipPath id="clip0_281_73">
<rect width="165.021" height="122.435" fill="white" transform="translate(45.9913 0.13916) rotate(22.0639)"/>
</clipPath>
</defs>
</svg>
